<?xml version="1.0" standalone="no"?><!DOCTYPE svg PUBLIC "-//W3C//DTD SVG 1.1//EN" "http://www.w3.org/Graphics/SVG/1.1/DTD/svg11.dtd"><svg t="1604196364825" class="icon" viewBox="0 0 1024 1024" version="1.1" xmlns="http://www.w3.org/2000/svg" p-id="6600" xmlns:xlink="http://www.w3.org/1999/xlink" width="200" height="200"><defs><style type="text/css"></style></defs><path d="M466.12521 37.53984h427.70432c35.90144 0 68.52608 15.23712 92.13952 39.7312a135.94624 135.94624 0 0 1 37.92896 94.4128v540.85632a135.86432 135.86432 0 0 1-37.92896 94.4128 128.26624 128.26624 0 0 1-78.21312 38.95296 166.83008 166.83008 0 0 1-46.7968 90.86976 166.56384 166.56384 0 0 1-118.04672 49.00864c-82.49344 0-151.3472-60.33408-164.72064-139.12064h-107.7248c-13.37344 78.78656-82.20672 139.12064-164.70016 139.12064a166.56384 166.56384 0 0 1-118.04672-49.00864 166.78912 166.78912 0 0 1-46.65344-90.09152h-10.89536c-35.90144 0-68.5056-15.21664-92.13952-39.7312a135.94624 135.94624 0 0 1-37.92896-94.4128V481.19808c0-26.99264 2.51904-49.2544 14.27456-71.10656 11.42784-21.27872 30.9248-40.28416 64.57344-60.35456l176.35328-105.24672c42.98752-25.66144 49.80736-61.72672 55.97184-94.3104 11.4688-60.68224 21.2992-112.64 154.84928-112.64z m-35.26656 356.61824l99.30752 99.30752 194.92864-195.42016c22.87616-22.91712 55.0912 9.0112 32.1536 31.98976l-211.02592 211.5584c-8.02816 8.04864-24.12544 8.11008-32.1536 0.08192l-115.36384-115.36384c-22.91712-22.91712 9.216-55.11168 32.1536-32.1536z m478.02368 405.62688a83.43552 83.43552 0 0 0 44.40064-24.2688 90.56256 90.56256 0 0 0 25.12896-62.95552V171.70432c0-24.576-9.6256-46.87872-25.12896-62.95552a82.47296 82.47296 0 0 0-59.45344-25.7024H466.12521c-95.96928 0-102.56384 34.83648-110.26432 75.50976-7.96672 42.12736-16.77312 88.76032-77.29152 124.86656l-176.35328 105.24672c-25.94816 15.48288-40.3456 28.91776-47.86176 42.94656-7.22944 13.43488-8.76544 29.45024-8.76544 49.62304v231.34208c0 24.576 9.6256 46.87872 25.12896 62.95552a82.47296 82.47296 0 0 0 59.45344 25.7024h9.48224c8.8064-83.82464 80.05632-149.54496 166.13376-149.54496 46.01856 0 87.79776 18.75968 118.04672 49.00864a166.62528 166.62528 0 0 1 48.08704 100.51584h104.83712a166.58432 166.58432 0 0 1 48.10752-100.51584 166.56384 166.56384 0 0 1 118.04672-49.00864c85.6064-0.02048 156.50816 64.94208 165.96992 148.09088z m-165.96992-102.62528a121.2416 121.2416 0 0 0-85.89312 35.69664 121.20064 121.20064 0 0 0-35.69664 85.89312c0 66.94912 54.62016 121.58976 121.58976 121.58976a121.20064 121.20064 0 0 0 85.89312-35.69664 121.2416 121.2416 0 0 0 35.69664-85.89312 121.81504 121.81504 0 0 0-121.58976-121.58976z m-437.12512 0a121.81504 121.81504 0 0 0-121.58976 121.58976 121.2416 121.2416 0 0 0 35.69664 85.89312 121.20064 121.20064 0 0 0 85.89312 35.69664c66.94912 0 121.58976-54.62016 121.58976-121.58976a121.20064 121.20064 0 0 0-35.69664-85.89312 121.15968 121.15968 0 0 0-85.89312-35.69664z" fill="#1296db" p-id="6601"></path></svg>