<?xml version="1.0" standalone="no"?><!DOCTYPE svg PUBLIC "-//W3C//DTD SVG 1.1//EN" "http://www.w3.org/Graphics/SVG/1.1/DTD/svg11.dtd"><svg t="1604196727579" class="icon" viewBox="0 0 1024 1024" version="1.1" xmlns="http://www.w3.org/2000/svg" p-id="11816" xmlns:xlink="http://www.w3.org/1999/xlink" width="200" height="200"><defs><style type="text/css"></style></defs><path d="M751.960028 406.755271c-48.708304 0-92.095533-21.386629-122.691716-54.848006L442.723693 459.659039c4.604777 15.553912 7.879285 31.619466 7.879285 48.605975 0 27.62866-7.162986 53.210752-18.726092 76.234636l179.279305 103.556311c29.777556-46.968722 81.555711-78.281203 140.803837-78.281203 92.504847 0 167.409214 75.825322 167.409214 169.251124s-75.006695 169.251124-167.409214 169.251124c-92.504847 0-167.409214-75.825322-167.409214-169.251124 0-6.242031 1.125612-12.177076 1.841911-18.316778L383.577895 643.747777l0.613971-1.330269c-28.140302 21.795943-62.931948 35.200959-101.10043 35.200959-92.504847 0-167.409214-75.825322-167.409214-169.251124 0-93.52813 75.006695-169.251124 167.409214-169.251124 48.708304 0 92.095533 21.386629 122.691716 54.848006l186.544619-107.751774c-4.604777-15.553912-7.879285-31.619466-7.879285-48.708304 0-93.52813 75.006695-169.251124 167.409214-169.251124 92.504847 0 167.409214 75.825322 167.409213 169.251124 0.102328 93.425802-74.802039 169.251124-167.306885 169.251124z m0 473.985011c55.461977 0 100.486459-45.433796 100.486459-101.612072 0-56.075947-45.024483-101.612072-100.486459-101.612071s-100.486459 45.433796-100.486459 101.612071 45.024483 101.612072 100.486459 101.612072zM283.091436 406.755271c-55.461977 0-100.486459 45.433796-100.486459 101.612072 0 56.075947 45.024483 101.612072 100.486459 101.612071s100.486459-45.433796 100.486459-101.612071c0-56.075947-45.024483-101.612072-100.486459-101.612072zM751.960028 135.892076c-55.461977 0-100.486459 45.433796-100.486459 101.612071 0 56.075947 45.024483 101.612072 100.486459 101.612072s100.486459-45.433796 100.486459-101.612072c0-56.075947-45.024483-101.612072-100.486459-101.612071z" p-id="11817" fill="#1296db"></path></svg>