<?xml version="1.0" standalone="no"?><!DOCTYPE svg PUBLIC "-//W3C//DTD SVG 1.1//EN" "http://www.w3.org/Graphics/SVG/1.1/DTD/svg11.dtd"><svg t="1604195898481" class="icon" viewBox="0 0 1024 1024" version="1.1" xmlns="http://www.w3.org/2000/svg" p-id="3085" xmlns:xlink="http://www.w3.org/1999/xlink" width="200" height="200"><defs><style type="text/css"></style></defs><path d="M658.519 156c96.319 0 174.583 77.334 176.139 173.322l0.023 2.914v220.267c0 16.522-13.388 29.916-29.903 29.916-16.279 0-29.52-13.014-29.895-29.21l-0.008-0.706V332.236c0-63.645-51.058-115.361-114.432-116.39l-1.924-0.015H247.163c-63.62 0-115.314 51.08-116.341 114.48l-0.016 1.925v411.528c0 63.645 51.058 115.361 114.433 116.39l1.924 0.015h343.773c16.515 0 29.903 13.393 29.903 29.915 0 16.286-13.008 29.533-29.197 29.908l-0.706 0.008H247.163c-96.32 0-174.584-77.334-176.14-173.322L71 743.764V332.236c0-96.359 77.301-174.656 173.25-176.212l2.913-0.024h411.356z m81.852 457.94c72.413 0 131.114 58.726 131.114 131.168 0 21.692-5.263 42.154-14.581 60.177l41.113 39.992c10.225 9.947 10.688 26.22 1.045 36.732-9.287 10.123-25.021 10.8-35.144 1.514a24.87 24.87 0 0 1-0.529-0.5l-38.6-37.547c-22.809 19.22-52.261 30.801-84.418 30.801-57.087 0-105.653-36.5-123.652-87.444l-347.885-0.002c-16.522 0-29.916-13.393-29.916-29.915S252.312 729 268.834 729h341.402c7.938-64.844 63.175-115.06 130.135-115.06z m0 48.325c-44.945 0-81.38 36.575-81.38 81.693 0 0.524 0.004 1.047 0.014 1.57a29.764 29.764 0 0 1 3.158 13.388 30.07 30.07 0 0 1-0.544 5.709c9.117 35.11 40.92 61.026 78.752 61.026 44.946 0 81.381-36.575 81.381-81.693 0-45.118-36.435-81.693-81.38-81.693zM451.247 284.541c16.515 0 29.903 13.388 29.903 29.903v268.055l70.644-72.244 0.348-0.35c11.57-11.455 30.235-11.549 41.919-0.123 0.16 0.156 0.317 0.314 0.473 0.473 11.88 12.148 11.88 31.56 0 43.708L472.992 678.258l-0.371 0.373c-5.853 5.782-13.516 8.662-21.171 8.619h-0.078l-0.125 0.001c-8.622 0-16.391-3.648-21.848-9.486l-121.06-123.802c-11.879-12.148-11.879-31.56 0-43.708 0.156-0.16 0.314-0.317 0.473-0.473 11.803-11.541 30.726-11.33 42.267 0.473l70.265 71.857V314.444c0-16.515 13.388-29.903 29.903-29.903z" fill="#1296db" p-id="3086"></path></svg>