<?xml version="1.0" standalone="no"?><!DOCTYPE svg PUBLIC "-//W3C//DTD SVG 1.1//EN" "http://www.w3.org/Graphics/SVG/1.1/DTD/svg11.dtd"><svg t="1604196490603" class="icon" viewBox="0 0 1024 1024" version="1.1" xmlns="http://www.w3.org/2000/svg" p-id="7956" xmlns:xlink="http://www.w3.org/1999/xlink" width="200" height="200"><defs><style type="text/css"></style></defs><path d="M544 896H136c-4.411 0-8-3.589-8-8V136c0-4.411 3.589-8 8-8h624c4.411 0 8 3.589 8 8v280c0 17.673 14.327 32 32 32s32-14.327 32-32V136c0-39.701-32.299-72-72-72H136c-39.701 0-72 32.299-72 72v752c0 39.701 32.299 72 72 72h408c17.673 0 32-14.327 32-32s-14.327-32-32-32z" p-id="7957" fill="#1296db"></path><path d="M950.628 905.372l-90.183-90.183C882.823 783.793 896 745.406 896 704c0-105.869-86.131-192-192-192s-192 86.131-192 192 86.131 192 192 192c41.406 0 79.793-13.177 111.189-35.555l90.183 90.183C911.621 956.876 919.811 960 928 960s16.379-3.124 22.628-9.372c12.497-12.497 12.497-32.759 0-45.256zM576 704c0-70.579 57.421-128 128-128s128 57.421 128 128c0 32.12-11.896 61.514-31.51 84.011a31.976 31.976 0 0 0-12.48 12.481C765.512 820.104 736.12 832 704 832c-70.579 0-128-57.421-128-128zM416 640H224c-17.673 0-32 14.327-32 32s14.327 32 32 32h192c17.673 0 32-14.327 32-32s-14.327-32-32-32zM416 768H224c-17.673 0-32 14.327-32 32s14.327 32 32 32h192c17.673 0 32-14.327 32-32s-14.327-32-32-32zM576 384c17.674 0 32-14.327 32-32s-14.326-32-32-32h-47.246l64.481-64.481c12.497-12.497 12.497-32.758 0-45.255s-32.758-12.497-45.255 0l-98.48 98.481-98.481-98.481c-12.497-12.497-32.758-12.497-45.254 0-12.497 12.497-12.497 32.758 0 45.255L370.246 320H320c-17.673 0-32 14.327-32 32s14.327 32 32 32h96v65h-96c-17.673 0-32 14.327-32 32s14.327 32 32 32h96v32c0 17.674 14.327 32 32 32s32-14.326 32-32v-32h96c17.674 0 32-14.327 32-32s-14.326-32-32-32h-96v-65h96z" p-id="7958" fill="#1296db"></path></svg>